HIERARCHY
ROOT pelvis
{
  OFFSET 0 100 0
  CHANNELS 6 Xposition Yposition Zposition Zrotation Xrotation Yrotation
  JOINT pelvis_right_femur
  {
    OFFSET -10.78128 -3.44521 -0.5502486
    CHANNELS 3 Zrotation Xrotation Yrotation
    JOINT right_femur_tibia
    {
      OFFSET -0.8047443 -44.0398 -0.1307829
      CHANNELS 3 Zrotation Xrotation Yrotation
      JOINT right_tibia_foot
      {
        OFFSET 3.006224 -47.83518 -5
        CHANNELS 3 Zrotation Xrotation Yrotation
        End Site
        {
          OFFSET 0 -5 15
        }
      }
    }
  }
  JOINT pelvis_left_femur
  {
    OFFSET 10.78128 -3.44521 -0.5502486
    CHANNELS 3 Zrotation Xrotation Yrotation
    JOINT left_femur_tibia
    {
      OFFSET 0.8047443 -44.0398 -0.1307829
      CHANNELS 3 Zrotation Xrotation Yrotation
      JOINT left_tibia_foot
      {
        OFFSET -4.370144 -48.10324 -4.275266
        CHANNELS 3 Zrotation Xrotation Yrotation
        End Site
        {
          OFFSET 0 -5 15
        }
      }
    }
  }
  JOINT pelvis_spine1
  {
    OFFSET 0 6.468898 -3.129235
    CHANNELS 3 Zrotation Xrotation Yrotation
    JOINT spine1
    {
      OFFSET 0 23.15396 4.99043
      CHANNELS 3 Zrotation Xrotation Yrotation
      JOINT spine2
      {
        OFFSET 0 20.79997 -5.064912
        CHANNELS 3 Zrotation Xrotation Yrotation
        JOINT neck
        {
          OFFSET 0 14.38658 9.616178
          CHANNELS 3 Zrotation Xrotation Yrotation
          End Site
          {
            OFFSET 0 20 0
          }
        }
      }
      JOINT right_manubrium
      {
        OFFSET -5.722621 16.35077 3.967754
        CHANNELS 3 Zrotation Xrotation Yrotation
        JOINT right_clavicle
        {
          OFFSET -13.16364 1.694482 -4.693211
          CHANNELS 3 Zrotation Xrotation Yrotation
          JOINT right_humerus
          {
            OFFSET -28.5034 -0.3100689 -2.792744
            CHANNELS 3 Zrotation Xrotation Yrotation
            JOINT right_radius
            {
              OFFSET -25.15693 0.02248979 -1.271978
              CHANNELS 3 Zrotation Xrotation Yrotation
              End Site
              {
                OFFSET -15 0 0
              }
            }
          }
        }
      }
      JOINT left_manubrium
      {
        OFFSET 5.722621 16.35077 3.967754
        CHANNELS 3 Zrotation Xrotation Yrotation
        JOINT left_clavicle
        {
          OFFSET 13.16364 1.694482 -4.693211
          CHANNELS 3 Zrotation Xrotation Yrotation
          JOINT left_humerus
          {
            OFFSET 29.39168 -1.063119 -2.237045
            CHANNELS 3 Zrotation Xrotation Yrotation
            JOINT left_radius
            {
              OFFSET 24.59957 -0.9528479 0.9047498
              CHANNELS 3 Zrotation Xrotation Yrotation
              End Site
              {
                OFFSET 15 -0 -0
              }
            }
          }
        }
      }
    }
  }
}
MOTION
Frames: 23
Frame Time: 0.0416666666667
-275.4329 98.78193 3024.62 -2.719454 -5.476277 -26.77433 2.54481 20.48573 1.713509 -0 18.9455 -0 -4.565952 -11.40476 -0.2394926 0.3954905 -22.5354 -5.194481 -0 13.18067 -0 -2.977444 -5.997826 19.16895 -1.975068 -1.544908 6.578779 1.574948 12.55773 -6.812824 1.343782 24.08057 3.080451 -1.465694 -24.42135 8.404123 -1.149654 -28.63552 12.60232 89.59637 28.91197 -11.93808 -0 0 22.01287 -13.72109 5.493101 6.36869 2.4573 -17.25172 -2.857524 -91.43501 16.6602 28.19662 0 0 -4.869652 16.59167 14.87634 -10.56297
-277.5506 98.69873 3031.439 -2.038073 -6.13442 -26.97682 0.9507767 21.12264 1.301621 -0 25.80026 -0 -4.611922 -5.580492 0.197109 -2.138718 -20.1892 -6.917355 -0 15.23221 -0 -2.807952 -7.186964 19.36004 -1.832415 -1.514925 6.563634 1.580333 12.53826 -7.033982 1.334907 24.08883 2.899875 -1.540563 -24.49017 8.227153 -1.755114 -29.10242 12.55781 89.97906 27.6178 -11.95826 -0 0 22.6488 -14.64947 5.491073 6.197431 2.588703 -17.20821 -2.714245 -91.67609 16.55313 28.38736 0 0 -3.080228 16.39993 15.13185 -11.21874
-279.6559 99.27775 3038.266 -1.496661 -7.024932 -26.72798 -0.166993 19.85471 0.8370499 -0 34.74506 -0 -5.0364 1.691641 0.402925 -4.327991 -16.96417 -8.185426 -0 17.79848 -0 -2.171495 -8.475457 19.43693 -1.806937 -1.456264 6.421204 1.664831 12.39022 -7.274136 1.266389 24.19164 3.011391 -1.416053 -24.68106 8.204826 -2.170242 -29.16169 12.64451 90.4167 26.63346 -12.32988 -0 0 22.78797 -15.36027 5.380307 5.781513 2.823497 -17.19897 -2.454142 -91.88674 16.5831 28.03547 0 0 -1.573242 16.26726 15.22343 -12.11798
-281.6761 100.4598 3044.828 -1.336177 -7.739366 -26.02356 -0.553664 16.13273 0.476097 -0 44.26764 -0 -5.8342 8.47417 0.3049359 -5.641719 -12.90879 -8.859422 -0 19.33003 -0 -1.213162 -9.658896 19.3562 -1.914791 -1.388994 6.167946 1.817455 12.10671 -7.518132 1.129099 24.39119 3.403501 -1.115522 -24.96003 8.328421 -2.379675 -28.85222 12.85915 90.82847 25.97771 -12.95689 -0 0 22.51663 -15.86515 5.17771 5.177288 3.153611 -17.19385 -2.061987 -92.079 16.73196 27.23254 0 0 -0.3127081 16.18811 15.18089 -13.23785
-283.5539 101.9913 3050.93 -1.651242 -8.080871 -25.02159 -0.281688 10.17068 0.3506722 -0 51.87631 -0 -6.822392 13.01971 -0.1301207 -5.989898 -8.190899 -9.127813 -0 19.14578 -0 -0.2996901 -10.71631 19.13152 -2.157937 -1.335822 5.822043 2.027863 11.68099 -7.763732 0.9141652 24.66519 4.046736 -0.6733766 -25.29212 8.573652 -2.398796 -28.24642 13.17767 91.14419 25.61395 -13.73051 -0 0 21.96675 -16.21581 4.922392 4.467618 3.576028 -17.17312 -1.52302 -92.25405 16.96522 26.08701 -0 0 0.7538478 16.13611 15.04432 -14.53357
-285.2641 103.501 3056.518 -2.287502 -8.051557 -23.95501 0.350016 2.931429 0.4145966 -0 55.20508 -0 -7.712634 14.61199 -0.8088764 -5.647423 -3.282582 -9.257169 -0 17.53478 -0 0.2354851 -11.76782 18.73374 -2.529394 -1.315644 5.398225 2.28768 11.10963 -8.016079 0.614366 24.98234 4.908016 -0.1227895 -25.64695 8.910999 -2.258854 -27.4179 13.5707 91.31716 25.48171 -14.55878 -0 0 21.26432 -16.47806 4.660493 3.734363 4.089314 -17.12782 -0.8274235 -92.40599 17.24231 24.69423 -0 0 1.674934 16.07599 14.85307 -15.95451
-286.8245 104.6304 3061.664 -2.912869 -7.719535 -23.0224 0.9883076 -4.420131 0.4441228 -0 53.22501 -0 -8.232777 13.58661 -1.553395 -5.027607 1.201073 -9.382142 -0 15.30015 -0 0.2942402 -12.99055 18.07299 -3.021512 -1.343867 4.909214 2.589054 10.39439 -8.278739 0.2261005 25.31165 5.956584 0.5063457 -25.9995 9.314844 -1.984059 -26.42842 14.00965 91.30983 25.53777 -15.36484 -0 0 20.51043 -16.6979 4.432984 3.050701 4.688822 -17.05414 0.02729315 -92.52544 17.52686 23.13388 -0 0 2.47116 15.97896 14.64095 -17.44184
-288.2946 105.1302 3066.515 -3.215686 -7.178355 -22.32169 1.350559 -11.04376 0.1564952 -0 46.50165 -0 -8.223062 10.82734 -2.226191 -4.506982 4.894216 -9.469869 -0 13.14893 -0 0.02524609 -14.54594 17.11627 -3.623826 -1.434166 4.376094 2.919303 9.557288 -8.542734 -0.2397873 25.61811 7.146589 1.175173 -26.32595 9.764505 -1.574005 -25.34018 14.45946 91.07705 25.79264 -16.0653 -0 0 19.78725 -16.86069 4.270827 2.493046 5.351626 -16.95318 1.018656 -92.59471 17.78688 21.49678 -0 0 3.085281 15.83963 14.43726 -18.8883
-289.7633 104.8993 3071.254 -3.042282 -6.544692 -21.8447 1.295628 -16.55256 -0.6463548 -0 36.59769 -0 -7.743394 7.47955 -2.742937 -4.338857 7.851976 -9.396683 -0 11.47877 -0 -0.267668 -16.47128 15.9985 -4.305305 -1.593394 3.835427 3.257898 8.660893 -8.783957 -0.7419681 25.85339 8.392232 1.828528 -26.60372 10.23756 -1.013113 -24.2262 14.87193 90.58597 26.30633 -16.57637 -0 0 19.14816 -16.87685 4.193761 2.139431 6.025383 -16.8468 2.073514 -92.57554 17.98376 19.89032 -0 0 3.331641 15.6886 14.26565 -20.11333
-291.3341 103.9882 3076.075 -2.431016 -5.902468 -21.51133 0.8814155 -20.8516 -1.920487 -0 25.45221 -0 -7.063428 4.732006 -3.069506 -4.582806 10.37657 -9.07143 -0 10.56178 -0 -0.3598591 -18.58402 14.9489 -4.998495 -1.812259 3.333024 3.580856 7.804294 -8.974262 -1.206827 25.95752 9.568991 2.408455 -26.82097 10.70425 -0.3041643 -23.15948 15.19127 89.85809 27.13494 -16.85487 -0 0 18.59182 -16.62478 4.209937 2.039692 6.643412 -16.79192 3.068551 -92.4098 18.07017 18.40107 -0 0 2.921317 15.58829 14.13477 -20.91206
-293.1135 102.5761 3081.166 -1.590849 -5.283216 -21.21834 0.3829235 -23.92462 -3.325895 -0 15.03761 -0 -6.509674 3.405869 -3.257745 -5.080924 12.74428 -8.527407 -0 10.73076 -0 -0.345977 -20.47155 14.10339 -5.605312 -2.060365 2.911874 3.867134 7.090989 -9.095539 -1.550608 25.87708 10.54538 2.874735 -26.98689 11.12937 0.5049784 -22.19944 15.36888 88.98659 28.26882 -16.92743 -0 0 18.06501 -16.02554 4.316539 2.185132 7.153025 -16.86324 3.866063 -92.04923 18.0146 17.07071 -0 0 1.599919 15.60451 14.02751 -21.14528
-295.1984 100.9349 3086.674 -0.8444656 -4.719446 -20.88846 0.222442 -25.72863 -4.350948 -0 7.13562 -0 -6.317903 3.651588 -3.407447 -5.525311 15.02503 -7.904006 -0 12.42284 -0 -0.5639586 -21.54418 13.43333 -6.024999 -2.290266 2.605037 4.100041 6.598622 -9.143734 -1.711582 25.59131 11.2205 3.211255 -27.12849 11.48001 1.326704 -21.39211 15.37897 88.11594 29.61339 -16.87948 -0 0 17.5027 -15.08983 4.49907 2.507118 7.524317 -17.10954 4.355129 -91.49485 17.83457 15.92185 0 0 -0.6865738 15.76949 13.90264 -20.78966
-297.6486 99.3924 3092.67 -0.5287759 -4.294342 -20.51518 0.7968814 -26.19624 -4.544887 -0 3.006769 -0 -6.554996 4.953441 -3.582268 -5.590473 16.98932 -7.345406 -0 16.16135 -0 -1.248244 -21.1703 12.85643 -6.190084 -2.451499 2.433589 4.265022 6.368896 -9.122679 -1.672218 25.13164 11.54702 3.417464 -27.27003 11.73288 2.066052 -20.77259 15.22912 87.40093 31.02263 -16.81773 -0 0 16.86869 -13.91159 4.729614 2.904806 7.737421 -17.52037 4.4751 -90.81094 17.60323 14.9966 0 0 -3.721957 16.06384 13.71477 -19.92502
-300.448 98.28615 3099.112 -0.8418643 -4.141878 -20.19436 2.225153 -25.25336 -3.771528 -0 2.87125 -0 -7.099109 6.369233 -3.786085 -5.108751 18.09928 -6.897834 -0 22.4113 -0 -2.267463 -18.97814 12.39496 -6.092421 -2.509456 2.405007 4.349284 6.409086 -9.036375 -1.461828 24.58141 11.53541 3.497716 -27.41004 11.87724 2.654679 -20.36005 14.96034 86.96116 32.35431 -16.82732 -0 0 16.17075 -12.63006 4.968961 3.283852 7.772534 -18.02634 4.222789 -90.10289 17.41821 14.36244 0 0 -7.08726 16.4279 13.44113 -18.69383
-303.48 97.88521 3105.833 -1.70039 -4.389108 -20.10807 4.172731 -22.84507 -2.324895 -0 5.588821 -0 -7.696064 6.944438 -4.007163 -4.210593 17.67324 -6.486682 -0 31.18672 -0 -3.227062 -15.2317 12.20349 -5.785038 -2.458249 2.51189 4.344874 6.694408 -8.886331 -1.141005 24.05134 11.24195 3.457019 -27.51693 11.91449 3.065325 -20.15406 14.63402 86.84506 33.50976 -16.93807 -0 0 15.45522 -11.3889 5.174836 3.587103 7.616032 -18.52795 3.649356 -89.47696 17.35416 14.08474 0 0 -10.3122 16.79076 13.09525 -17.2637
-306.56 98.28791 3112.57 -2.749469 -5.065235 -20.42771 5.974624 -19.02983 -0.7426569 -0 9.112267 -0 -8.102366 6.152197 -4.242942 -3.261539 15.22291 -6.028265 -0 41.55916 -0 -3.838486 -10.91738 12.45365 -5.357 -2.319667 2.734756 4.251625 7.174339 -8.673974 -0.7763102 23.64065 10.74486 3.301967 -27.54695 11.856 3.303684 -20.14197 14.31093 87.02087 34.44169 -17.11362 -0 0 14.79421 -10.30614 5.31318 3.804836 7.272955 -18.9333 2.845301 -89.00753 17.43057 14.19806 0 0 -13.02073 17.09797 12.72032 -15.79547
-309.5218 99.3538 3119.055 -3.570247 -6.059075 -21.18537 7.035436 -14.08794 0.5563631 -0 11.60775 -0 -8.232927 4.076749 -4.465889 -2.584459 10.75006 -5.571994 -0 51.53549 -0 -4.114383 -7.299763 13.23514 -4.895951 -2.130548 3.049536 4.076521 7.787535 -8.404074 -0.4182832 23.40635 10.11721 3.04152 -27.46726 11.7181 3.389535 -20.31243 14.03356 87.3996 35.13671 -17.26968 -0 0 14.27235 -9.459146 5.367179 3.963502 6.770279 -19.18408 1.914748 -88.72807 17.61183 14.7027 0 0 -14.99798 17.32432 12.3727 -14.41539
-312.2869 100.7374 3125.109 -3.930692 -7.16353 -22.2354 7.182058 -8.513036 1.457973 -0 12.35809 -0 -8.171476 1.226715 -4.604348 -2.223389 4.77508 -5.252205 -0 58.62027 -0 -4.201253 -5.221554 14.50206 -4.460996 -1.928638 3.434649 3.830765 8.477825 -8.086751 -0.09291071 23.3553 9.408852 2.685606 -27.26694 11.51545 3.341375 -20.66388 13.8195 87.87186 35.59056 -17.30755 -0 0 13.97562 -8.886252 5.340852 4.10477 6.149356 -19.26023 0.9513864 -88.64259 17.83141 15.58199 0 0 -16.169 17.46931 12.10956 -13.2005
-314.8575 102.0173 3130.704 -3.886529 -8.141096 -23.34989 6.705378 -2.872593 2.042398 -0 11.78321 -0 -8.026758 -1.838094 -4.580417 -1.931707 -1.899634 -5.073441 -0 60.79637 -0 -4.137643 -4.690386 16.02992 -4.076041 -1.74432 3.872983 3.527942 9.201225 -7.73848 0.1941042 23.45472 8.643348 2.243619 -26.95487 11.25612 3.169874 -21.20361 13.66446 88.33709 35.79135 -17.14332 -0 0 13.98151 -8.599546 5.257414 4.268961 5.456858 -19.17103 0.02657902 -88.73959 18.01867 16.81491 0 0 -16.54346 17.54425 11.98176 -12.18276
-317.2593 102.8432 3135.939 -3.683513 -8.759681 -24.35193 6.113787 2.359085 2.397008 -0 10.78186 -0 -7.797461 -4.80344 -4.349579 -1.337395 -8.485738 -4.821196 -0 57.33183 -0 -3.855762 -5.034455 17.469 -3.737721 -1.598363 4.349224 3.184106 9.923547 -7.382876 0.4477444 23.64832 7.82638 1.725019 -26.55268 10.94101 2.87732 -21.94102 13.54892 88.71982 35.71454 -16.72539 -0 0 14.34895 -8.600163 5.154177 4.487592 4.740497 -18.94478 -0.8108336 -88.99652 18.11538 18.3707 0 0 -16.17596 17.56067 12.02702 -11.36445
-319.5091 103.0325 3140.99 -3.56238 -8.830471 -25.17988 5.791174 6.897355 2.555427 -0 10.06786 -0 -7.394467 -7.657515 -3.905618 -0.1944883 -14.36023 -4.24759 -0 49.03816 -0 -3.368728 -5.447446 18.50371 -3.428414 -1.502677 4.845367 2.818932 10.61395 -7.05109 0.6747372 23.87053 6.959577 1.142808 -26.09012 10.56781 2.460139 -22.87811 13.44509 88.97794 35.32605 -16.04453 -0 0 15.10806 -8.888471 5.07464 4.780168 4.049309 -18.62251 -1.528252 -89.37752 18.08355 20.19096 0 0 -15.15004 17.52386 12.26258 -10.73563
-321.6309 102.5964 3146.054 -3.610514 -8.28391 -25.86729 5.772996 10.65744 2.545047 -0 9.938946 -0 -6.778725 -10.48239 -3.272242 1.379564 -19.06001 -3.368583 -0 37.99647 -0 -2.856005 -5.482574 19.00221 -3.128514 -1.460791 5.336647 2.456976 11.23973 -6.780302 0.8777306 24.05902 6.055483 0.5193397 -25.60525 10.1387 1.9145 -23.997 13.32437 89.10876 34.59399 -15.14318 -0 0 16.24563 -9.462608 5.056849 5.148192 3.434413 -18.25434 -2.10265 -89.83259 17.91144 22.17053 0 0 -13.57651 17.43261 12.67774 -10.28886
-323.6803 101.7049 3151.317 -3.734255 -7.260418 -26.48681 5.759506 13.72571 2.423781 -0 10.44438 -0 -6.044829 -13.10617 -2.50413 2.833214 -22.26858 -2.590209 -0 26.93261 -0 -2.548037 -5.194603 19.07248 -2.825878 -1.466172 5.790044 2.12722 11.7668 -6.607424 1.053322 24.16853 5.149785 -0.1078252 -25.14634 9.669363 1.245999 -25.24393 13.16675 89.15376 33.51266 -14.12414 -0 0 17.68309 -10.30313 5.118376 5.564814 2.944755 -17.89475 -2.519192 -90.30365 17.62074 24.14858 0 0 -11.59908 17.28442 13.22743 -10.0276
